<?xml version="1.0" encoding="utf-8"?>
<!-- Generator: Adobe Illustrator 22.0.0, SVG Export Plug-In . SVG Version: 6.00 Build 0)  -->
<svg version="1.1" id="Layer_1" xmlns="http://www.w3.org/2000/svg" xmlns:xlink="http://www.w3.org/1999/xlink" x="0px" y="0px"
	 viewBox="0 0 20 23" style="enable-background:new 0 0 20 23;" xml:space="preserve">
<title>E4106090-14E7-4E8F-BB10-338DB2FFE9C6</title>
<desc>Created with sketchtool.</desc>
<g id="Page-1">
	<g id="Form-component" transform="translate(-444.000000, -879.000000)">
		<g id="Icons" transform="translate(79.000000, 877.000000)">
			<g id="close" transform="translate(365.000000, 2.000000)">
				<path id="Path-2" d="M19,0.2c0.2-0.2,0.6-0.3,0.8-0.1s0.3,0.6,0.1,0.8L1,21.9c-0.2,0.2-0.6,0.3-0.8,0.1
					c-0.2-0.2-0.3-0.6-0.1-0.8L19,0.2z"/>
				<path id="Path-2_1_" d="M0.1,0.9C-0.1,0.7,0,0.4,0.2,0.1S0.8,0,1,0.2l18.8,20.9c0.2,0.2,0.2,0.6-0.1,0.8
					c-0.2,0.2-0.6,0.2-0.8-0.1L0.1,0.9z"/>
			</g>
		</g>
	</g>
</g>
</svg>
